<?xml version="1.0" encoding="UTF-8" standalone="no"?><svg xmlns="http://www.w3.org/2000/svg" xmlns:xlink="http://www.w3.org/1999/xlink" clip-rule="evenodd" stroke-miterlimit="10" viewBox="0 0 1024 768"><desc>SVG generated by Keynote</desc><defs></defs><g transform="matrix(1.00, 0.00, -0.00, -1.00, 0.0, 768.0)"><g><clipPath id="clip0x6100008ab0a0"><path d="M 0.0 768.0 L 1024.0 768.0 L 1024.0 0.0 L 0.0 0.0 Z M 0.0 768.0 "></path></clipPath><g clip-path="url(#clip0x6100008ab0a0)"><image xlink:href="../../E942948C-BC6A-49D1-B3B9-4DAB4A4FD6CB/assets/574DCE55A4CF432400CBDDDE1DFDFC9B.jpeg" width="2048.00" height="1536.00" transform="matrix(0.50, 0.00, -0.00, -0.50, 0.0, 768.0)"></image></g></g><path d="M 349.2 471.0 C 333.2 470.6 320.0 457.7 320.0 441.7 L 320.0 361.9 C 320.0 345.9 333.2 333.0 349.2 333.0 L 558.5 333.0 L 581.3 298.2 L 604.2 333.0 L 637.5 333.0 C 653.5 333.0 666.0 345.9 666.0 361.9 L 666.0 441.7 C 666.0 457.7 653.5 471.0 637.5 471.0 L 349.2 471.0 Z M 349.2 470.6 " fill="#FEFFFE"></path><path d="M 28.9 -0.4 C 12.9 0.0 -0.3 12.9 -0.3 28.9 L -0.3 108.8 C -0.3 124.7 12.9 137.6 28.9 137.6 L 238.2 137.6 L 261.1 172.5 L 283.9 137.6 L 317.3 137.6 C 333.2 137.6 345.7 124.7 345.7 108.8 L 345.7 28.9 C 345.7 12.9 333.2 -0.4 317.3 -0.4 L 28.9 -0.4 Z M 28.9 0.0 " fill="none" stroke="#7F8685" stroke-width="2.00" transform="matrix(1.00, 0.00, 0.00, -1.00, 320.3, 470.6)"></path><g><clipPath id="clip0x6180006b7640"><path d="M 304.2 315.9 L 682.6 315.9 L 682.6 487.2 L 304.2 487.2 Z M 304.2 315.9 "></path></clipPath><g clip-path="url(#clip0x6180006b7640)"><text xml:space="preserve" font-family="GillSans-Bold,Gill Sans" font-weight="bold" font-size="99.0" fill="#C82505" transform="matrix(1.00, 0.00, -0.00, -1.00, 352.8, 367.8)">s</text><text xml:space="preserve" font-family="GillSans-Bold,Gill Sans" font-weight="bold" font-size="99.0" fill="#C82505" transform="matrix(1.00, 0.00, -0.00, -1.00, 400.7, 367.8)">h</text><text xml:space="preserve" font-family="GillSans-Bold,Gill Sans" font-weight="bold" font-size="99.0" fill="#C82505" transform="matrix(1.00, 0.00, -0.00, -1.00, 463.7, 367.8)">i</text><text xml:space="preserve" font-family="GillSans-Bold,Gill Sans" font-weight="bold" font-size="99.0" fill="#C82505" transform="matrix(1.00, 0.00, -0.00, -1.00, 494.0, 367.8)">p</text><text xml:space="preserve" font-family="GillSans-Bold,Gill Sans" font-weight="bold" font-size="99.0" fill="#C82505" transform="matrix(1.00, 0.00, -0.00, -1.00, 557.1, 367.8)">i</text><text xml:space="preserve" font-family="GillSans-Bold,Gill Sans" font-weight="bold" font-size="99.0" fill="#C82505" transform="matrix(1.00, 0.00, -0.00, -1.00, 587.4, 367.8)">t</text></g></g></g></svg>